<?xml version="1.0" encoding="UTF-8"?><svg id="Layer_1" xmlns="http://www.w3.org/2000/svg" viewBox="0 0 324.36 321.91"><defs><style>.cls-1{fill:#fff;}</style></defs><path class="cls-1" d="M1.86,158.54l-.09,3.48-1.26-.03,.23-8.48,1.26,.03-.09,3.5,10.2,.27-.04,1.5-10.2-.27Z"/><path class="cls-1" d="M4.98,150.72c-.56-.37-.95-.79-1.19-1.26s-.32-1.05-.26-1.74c.08-.97,.4-1.66,.94-2.08,.54-.42,1.36-.58,2.45-.49l5.96,.51-.13,1.5-5.67-.48c-.81-.07-1.41,.02-1.79,.28-.38,.25-.6,.71-.66,1.37-.06,.7,.14,1.28,.58,1.75s1.08,.73,1.91,.8l5.28,.45-.13,1.49-12.27-1.05,.13-1.49,3.19,.27c.22,.02,.45,.04,.7,.08l.63,.08c.18,.02,.29,.04,.33,.05v-.02Z"/><path class="cls-1" d="M9.16,141.86c1.02,.15,1.83,.06,2.45-.28,.62-.34,.98-.91,1.1-1.72,.09-.64,.04-1.17-.16-1.6-.2-.42-.49-.73-.86-.93l.56-1.24c1.32,.74,1.84,2.05,1.57,3.93-.19,1.31-.73,2.26-1.62,2.83-.88,.57-2.1,.74-3.64,.51-1.47-.22-2.54-.73-3.22-1.53-.68-.8-.93-1.84-.74-3.12,.19-1.31,.73-2.23,1.62-2.76,.88-.53,2.11-.69,3.68-.45l.2,.03-.94,6.34Zm-.42-4.98c-.95-.06-1.67,.08-2.15,.41-.49,.33-.79,.87-.9,1.6-.11,.72,.05,1.32,.47,1.81s1.04,.81,1.87,.97l.71-4.8Z"/><path class="cls-1" d="M16.18,127.7c-.21,.88-.61,1.48-1.18,1.81-.57,.33-1.26,.39-2.06,.19-.9-.22-1.52-.69-1.86-1.4s-.36-1.73-.07-3.06l.45-1.97-.48-.12c-.71-.17-1.25-.15-1.63,.08s-.65,.66-.81,1.31c-.16,.65-.16,1.15-.02,1.5s.46,.61,.93,.79l-.51,1.48c-1.51-.63-2.01-1.99-1.5-4.08,.27-1.1,.72-1.86,1.36-2.29,.64-.43,1.43-.53,2.38-.3l3.76,.92c.43,.1,.77,.13,1.01,.07,.25-.06,.41-.25,.48-.56,.04-.15,.06-.31,.06-.49l.9,.22c0,.19-.01,.39-.04,.58-.02,.19-.06,.38-.11,.57-.13,.54-.37,.89-.71,1.07-.34,.18-.82,.21-1.43,.09v.05c.56,.53,.93,1.08,1.09,1.64,.16,.56,.15,1.19-.02,1.9Zm-3.71-4.18l-.36,1.6c-.16,.68-.22,1.21-.17,1.6,.04,.39,.17,.71,.4,.96s.55,.43,.99,.54c.47,.12,.87,.08,1.19-.11,.32-.19,.54-.52,.65-1,.13-.54,.13-1.04-.02-1.51-.14-.47-.39-.88-.76-1.22-.36-.34-.77-.57-1.21-.68l-.72-.18Z"/><path class="cls-1" d="M13.23,117.87l4.97,1.55-.45,1.43-6.74-2.1c-.5-.16-.91-.28-1.21-.37s-.52-.14-.63-.16l.42-1.35c.1,.02,.23,.05,.39,.09,.16,.04,.33,.09,.51,.14,.19,.05,.38,.11,.58,.16v-.02c-.48-.51-.78-1.02-.89-1.53-.11-.51-.07-1.08,.13-1.72,.29-.94,.75-1.55,1.37-1.84s1.45-.26,2.5,.06l5.71,1.78-.45,1.43-5.44-1.7c-.82-.26-1.43-.3-1.84-.14-.4,.16-.71,.57-.91,1.22-.21,.69-.15,1.3,.2,1.84,.35,.54,.94,.94,1.77,1.21Z"/><path class="cls-1" d="M21.96,108.86c-.44,1.17-1.16,1.93-2.13,2.27s-2.18,.24-3.6-.3c-1.41-.53-2.37-1.25-2.88-2.16-.51-.9-.54-1.93-.1-3.09,.33-.86,.82-1.49,1.48-1.89s1.41-.52,2.24-.37l-.43,1.48c-.49-.1-.93-.06-1.32,.13-.39,.19-.68,.56-.89,1.1-.28,.74-.24,1.37,.13,1.89,.37,.52,1.13,1,2.3,1.44,1.12,.42,2.01,.56,2.68,.41,.67-.15,1.14-.58,1.41-1.29,.19-.5,.21-.96,.07-1.4-.14-.44-.48-.8-1.01-1.09l.63-1.38c.51,.28,.91,.63,1.2,1.07,.29,.44,.46,.93,.5,1.47,.04,.54-.05,1.11-.27,1.7Z"/><path class="cls-1" d="M12.88,98.05l1.31,.56-.58,1.38-1.31-.56,.58-1.38Zm3.07,1.31l8.27,3.51-.58,1.38-8.27-3.51,.58-1.38Z"/><path class="cls-1" d="M21.78,98.03c.93,.44,1.74,.59,2.43,.45,.69-.14,1.21-.58,1.56-1.32,.28-.58,.39-1.11,.32-1.57-.07-.46-.25-.84-.55-1.14l.9-1.02c1.05,1.1,1.16,2.5,.34,4.22-.57,1.2-1.37,1.94-2.38,2.23-1.01,.29-2.22,.09-3.63-.58-1.34-.64-2.21-1.44-2.63-2.41s-.34-2.03,.21-3.2c.57-1.19,1.36-1.92,2.36-2.17s2.22-.03,3.65,.65l.18,.09-2.76,5.78Zm1.06-4.88c-.89-.33-1.62-.41-2.18-.24-.56,.17-1.01,.6-1.33,1.27-.31,.65-.34,1.28-.09,1.87,.25,.59,.76,1.08,1.51,1.48l2.09-4.37Z"/><path class="cls-1" d="M25.31,88.65l4.55,2.53-.73,1.31-6.17-3.43c-.46-.26-.83-.46-1.11-.6-.28-.15-.48-.24-.59-.28l.69-1.23c.1,.04,.22,.1,.36,.17,.14,.07,.3,.15,.47,.24,.17,.09,.35,.18,.54,.28v-.02c-.36-.6-.55-1.16-.56-1.68,0-.52,.15-1.07,.48-1.66,.48-.86,1.05-1.37,1.71-1.52,.66-.15,1.47,.04,2.44,.57l5.23,2.91-.73,1.31-4.98-2.77c-.75-.42-1.34-.59-1.77-.51-.43,.08-.81,.41-1.14,1.01-.35,.63-.41,1.24-.18,1.85s.73,1.12,1.49,1.54Z"/><path class="cls-1" d="M35.5,81.45c-.14,.48-.35,.95-.63,1.39-.31,.51-.7,.8-1.14,.88-.45,.08-.96-.06-1.53-.42l-5.1-3.15-.55,.88-.92-.57,.58-.93-1.48-1.43,.52-.85,1.71,1.06,.87-1.41,.92,.57-.87,1.41,4.82,2.98c.37,.23,.66,.33,.88,.3,.22-.03,.43-.19,.61-.49,.1-.16,.22-.43,.36-.8l.94,.58Z"/><path class="cls-1" d="M43.3,68.28l1.04,.77-5.48,7.4-9.4-6.96,5.28-7.13,1.04,.77-4.34,5.86,3.02,2.23,4.04-5.46,1.03,.76-4.04,5.46,3.28,2.43,4.54-6.13Z"/><path class="cls-1" d="M50.33,67.44c-.63,.75-1.29,1.22-1.96,1.41-.67,.19-1.33,.12-1.97-.21l.81-1.28c.38,.19,.77,.23,1.16,.12,.39-.11,.77-.38,1.12-.8,.48-.56,.68-1.13,.58-1.7-.09-.57-.47-1.13-1.13-1.7l-1.1-.94h-.01c.25,.6,.33,1.18,.24,1.74-.1,.56-.36,1.1-.79,1.6-.71,.84-1.52,1.22-2.41,1.14s-1.93-.63-3.13-1.64c-1.21-1.03-1.92-2-2.14-2.91-.21-.91,.05-1.8,.78-2.67,.41-.48,.88-.81,1.41-.98,.52-.17,1.07-.17,1.65-.02h.01c-.08-.08-.21-.2-.38-.36-.17-.16-.33-.32-.48-.46s-.23-.23-.24-.26l.92-1.08c.21,.22,.67,.63,1.38,1.24l5.23,4.45c.96,.82,1.48,1.67,1.55,2.55,.08,.88-.29,1.81-1.11,2.76Zm-4.63-6.93c-.83-.71-1.63-1.09-2.4-1.16s-1.37,.16-1.82,.69c-.5,.58-.64,1.18-.45,1.81,.2,.62,.76,1.34,1.71,2.14,.94,.8,1.71,1.24,2.33,1.34,.62,.1,1.19-.15,1.7-.75,.46-.54,.6-1.18,.42-1.92-.18-.74-.68-1.45-1.49-2.15Z"/><path class="cls-1" d="M54.36,62.85c-.28,.29-.53,.51-.78,.68l-.81-.77c.17-.13,.34-.29,.52-.47,.32-.34,.49-.77,.52-1.29,.02-.52-.19-1.22-.63-2.07l-8.92-3.61,1.1-1.15,4.89,2.07c.35,.15,.74,.32,1.18,.51,.43,.2,.8,.38,1.11,.55-.19-.37-.37-.74-.56-1.11-.18-.37-.37-.74-.56-1.1l-2.44-4.71,1.09-1.14,4.1,8.71c.21,.46,.39,.88,.53,1.25,.14,.37,.24,.69,.29,.97,.12,.56,.12,1.06,.02,1.5-.1,.44-.33,.84-.67,1.19Z"/><path class="cls-1" d="M59.78,46.26c1.07,1.15,1.66,2.19,1.79,3.14,.13,.95-.21,1.8-1.02,2.55-1.01,.94-2.05,1.19-3.1,.76l-.03,.03s.37,.35,.99,1.01l2.39,2.57-1.09,1.02-7.27-7.82c-.31-.34-.58-.61-.79-.83-.21-.22-.38-.38-.49-.48l1.06-.98s.1,.08,.24,.22,.29,.28,.45,.43,.28,.27,.35,.35l.02-.02c-.18-.59-.2-1.12-.06-1.61,.15-.49,.48-.97,1-1.46,.81-.75,1.67-1.05,2.58-.88,.91,.17,1.9,.84,2.98,2Zm-1.13,1.09c-.85-.92-1.58-1.46-2.2-1.62-.61-.16-1.19,0-1.73,.51-.6,.56-.85,1.18-.76,1.86s.58,1.49,1.44,2.42c.8,.86,1.53,1.37,2.19,1.52,.66,.15,1.29-.06,1.91-.63,.54-.5,.75-1.07,.63-1.7-.12-.63-.62-1.42-1.49-2.36Z"/><path class="cls-1" d="M66.81,46.19c-.29,.42-.63,.79-1.02,1.13-.46,.39-.91,.55-1.36,.48-.45-.07-.89-.36-1.33-.87l-3.87-4.57-.79,.67-.7-.83,.84-.71-.96-1.82,.76-.64,1.3,1.53,1.27-1.07,.7,.83-1.27,1.07,3.66,4.33c.28,.33,.53,.52,.75,.56,.22,.04,.46-.05,.73-.27,.14-.12,.34-.34,.58-.65l.71,.84Z"/><path class="cls-1" d="M61.24,34.96l.89,1.11-1.17,.93-.89-1.11,1.17-.93Zm2.08,2.6l5.61,7.01-1.17,.93-5.61-7.01,1.17-.93Z"/><path class="cls-1" d="M72.58,41.98c-.73,.53-1.42,.74-2.06,.62-.65-.12-1.22-.51-1.71-1.18-.55-.75-.72-1.51-.52-2.27,.2-.76,.84-1.56,1.92-2.39l1.61-1.22-.29-.4c-.43-.59-.87-.92-1.3-.99s-.92,.09-1.46,.48c-.54,.4-.87,.77-.98,1.14-.11,.36-.04,.76,.2,1.2l-1.34,.81c-.75-1.45-.26-2.82,1.48-4.08,.91-.67,1.75-.96,2.51-.88s1.44,.52,2.02,1.31l2.28,3.12c.26,.36,.51,.59,.73,.7s.47,.07,.73-.12c.12-.09,.25-.2,.36-.34l.55,.75c-.13,.15-.26,.29-.4,.42-.14,.13-.29,.26-.45,.37-.45,.33-.86,.45-1.23,.36-.37-.09-.76-.37-1.15-.85l-.04,.03c.1,.78,.03,1.43-.21,1.96s-.65,1.01-1.24,1.44Zm-.15-5.59l-1.3,.99c-.56,.42-.95,.79-1.16,1.12-.22,.32-.32,.65-.31,.99s.14,.69,.41,1.05c.29,.39,.62,.62,.98,.68,.37,.06,.75-.06,1.14-.34,.45-.33,.77-.71,.96-1.16,.2-.45,.27-.93,.21-1.42-.06-.5-.22-.93-.49-1.3l-.44-.6Z"/><path class="cls-1" d="M76.64,32.56l2.81,4.38-1.26,.81-3.81-5.95c-.28-.44-.51-.8-.69-1.06-.18-.26-.31-.44-.38-.53l1.19-.76c.07,.08,.15,.19,.24,.32,.09,.13,.2,.28,.3,.44,.11,.16,.22,.33,.34,.5h.02c-.05-.72,.05-1.3,.29-1.76s.64-.87,1.21-1.23c.83-.53,1.57-.71,2.23-.53,.66,.18,1.28,.73,1.88,1.66l3.23,5.04-1.26,.81-3.07-4.79c-.46-.72-.9-1.15-1.32-1.29-.42-.13-.91-.02-1.48,.35-.61,.39-.95,.9-1.03,1.54-.08,.64,.11,1.33,.58,2.06Z"/><path class="cls-1" d="M93.18,29.09c-1.11,.58-2.15,.67-3.1,.27-.95-.4-1.78-1.27-2.48-2.62-.7-1.34-.94-2.52-.71-3.53,.22-1.01,.88-1.8,1.98-2.38,.81-.42,1.6-.57,2.36-.42s1.4,.55,1.92,1.22l-1.31,.81c-.3-.41-.66-.67-1.07-.78-.42-.11-.88-.04-1.4,.23-.7,.37-1.09,.86-1.16,1.49-.07,.63,.18,1.5,.76,2.6,.55,1.06,1.13,1.76,1.73,2.09,.6,.34,1.24,.33,1.91-.02,.47-.25,.8-.58,.98-1s.17-.91-.03-1.48l1.39-.61c.2,.55,.26,1.08,.18,1.6-.08,.52-.28,1-.6,1.43-.33,.43-.77,.8-1.34,1.09Z"/><path class="cls-1" d="M93.63,14.96l.61,1.29-1.35,.64-.61-1.29,1.35-.64Zm1.42,3.02l3.83,8.13-1.35,.64-3.83-8.13,1.35-.64Z"/><path class="cls-1" d="M104.06,14.06l.41,9.58-1.63,.69-6.5-7,1.47-.62,4.09,4.61c.08,.09,.23,.26,.44,.53,.21,.27,.5,.62,.85,1.06-.02-.23-.04-.46-.07-.71s-.05-.48-.08-.71c-.02-.23-.04-.44-.05-.62l-.4-6.19,1.46-.62Z"/><path class="cls-1" d="M105.66,9.94l.5,1.34-1.4,.53-.5-1.34,1.4-.53Zm1.17,3.12l3.16,8.41-1.4,.53-3.16-8.41,1.4-.53Z"/><path class="cls-1" d="M109.44,8.59l4.04,11.64-1.41,.49-4.04-11.64,1.41-.49Z"/><path class="cls-1" d="M113.25,7.34l.44,1.36-1.42,.46-.43-1.36,1.42-.46Zm1.02,3.18l2.74,8.55-1.42,.46-2.74-8.55,1.42-.46Z"/><path class="cls-1" d="M125.05,15.57l.31,1.11-6.71,1.85-.3-1.1,3.06-7.78-4.57,1.26-.31-1.11,6.27-1.73,.3,1.1-3.07,7.79,5.02-1.38Z"/><path class="cls-1" d="M129.4,15.93c-.88,.19-1.59,.1-2.14-.27-.54-.37-.9-.96-1.07-1.77-.19-.91-.04-1.67,.45-2.29,.49-.61,1.4-1.08,2.73-1.4l1.97-.45-.1-.48c-.15-.71-.41-1.19-.78-1.44-.37-.24-.88-.3-1.53-.16-.65,.14-1.11,.35-1.36,.64-.25,.29-.35,.68-.31,1.18l-1.56,.19c-.09-1.63,.92-2.67,3.02-3.12,1.1-.24,1.99-.16,2.65,.23,.67,.39,1.1,1.06,1.3,2.02l.81,3.78c.09,.43,.22,.75,.38,.94,.16,.2,.4,.26,.72,.19,.15-.03,.31-.08,.47-.16l.19,.91c-.17,.08-.35,.15-.54,.22s-.37,.11-.56,.15c-.54,.12-.96,.06-1.27-.17-.31-.23-.54-.65-.7-1.25h-.05c-.23,.76-.56,1.33-1,1.71-.44,.38-1.01,.65-1.72,.8Zm2.15-5.16l-1.59,.37c-.68,.15-1.19,.33-1.51,.54-.33,.21-.56,.46-.69,.78s-.15,.69-.06,1.12c.1,.48,.31,.82,.62,1.02,.31,.21,.71,.26,1.18,.16,.54-.12,.99-.34,1.35-.67,.37-.33,.62-.74,.77-1.21,.15-.48,.18-.94,.08-1.39l-.15-.72Z"/><path class="cls-1" d="M139.67,13.77c-.46,.21-.94,.36-1.46,.44-.59,.1-1.06,0-1.41-.29-.35-.29-.58-.76-.69-1.43l-.97-5.91-1.02,.17-.18-1.07,1.08-.18,.11-2.05,.98-.16,.33,1.98,1.64-.27,.18,1.07-1.64,.27,.92,5.59c.07,.43,.19,.71,.36,.86,.17,.15,.42,.2,.77,.14,.19-.03,.46-.12,.83-.25l.18,1.09Z"/><path class="cls-1" d="M140.68,1.28l.19,1.41-1.48,.2-.19-1.42,1.48-.2Zm.45,3.31l1.21,8.9-1.48,.2-1.21-8.9,1.48-.2Z"/><path class="cls-1" d="M151.63,8c.14,1.56-.09,2.76-.71,3.59-.62,.83-1.58,1.31-2.89,1.43-1.31,.12-2.33-.19-3.07-.92-.74-.73-1.18-1.85-1.32-3.36-.14-1.54,.08-2.73,.68-3.56s1.56-1.31,2.9-1.44c1.37-.13,2.41,.16,3.12,.85,.71,.69,1.14,1.83,1.29,3.41Zm-1.56,.14c-.11-1.23-.38-2.11-.8-2.64-.42-.53-1.06-.75-1.93-.67-.87,.08-1.47,.42-1.81,1.03-.33,.61-.45,1.52-.33,2.73,.11,1.18,.38,2.05,.82,2.6,.44,.56,1.07,.8,1.89,.72,.89-.08,1.5-.43,1.83-1.04s.44-1.52,.33-2.74Z"/><path class="cls-1" d="M155.1,7.14l.16,5.2-1.49,.05-.22-7.06c-.02-.53-.03-.95-.05-1.26-.02-.32-.04-.53-.06-.65l1.41-.04c.01,.1,.03,.24,.04,.4,.01,.16,.03,.34,.04,.53s.02,.4,.04,.61h.03c.32-.63,.71-1.08,1.15-1.35,.44-.27,1-.42,1.67-.44,.98-.03,1.71,.2,2.18,.69s.72,1.28,.76,2.38l.18,5.98-1.5,.05-.18-5.69c-.03-.86-.18-1.45-.47-1.78-.29-.33-.77-.48-1.45-.46-.72,.02-1.28,.29-1.68,.79-.4,.5-.59,1.19-.56,2.07Z"/><path class="cls-1" d="M169.58,3.4l-.38,8.97-1.49-.06,.38-8.97,1.49,.06Zm.14-3.33l-.06,1.43-1.49-.06,.06-1.43,1.49,.06Z"/><path class="cls-1" d="M178.28,10.54c-.07,.84-.44,1.47-1.12,1.87-.67,.41-1.58,.56-2.73,.47-1.11-.09-1.96-.35-2.53-.76-.57-.42-.92-1.02-1.04-1.81l1.34-.15c.09,.49,.32,.86,.7,1.12s.92,.41,1.63,.47c.76,.06,1.32,0,1.69-.21,.37-.2,.57-.54,.61-1,.03-.35-.07-.65-.29-.89-.22-.24-.6-.45-1.13-.64-.63-.22-1.12-.41-1.49-.55-.37-.14-.65-.26-.85-.36-.2-.1-.35-.19-.47-.27-.35-.24-.61-.52-.79-.84-.18-.32-.25-.7-.21-1.14,.07-.82,.41-1.41,1.03-1.79,.62-.38,1.48-.52,2.6-.43,.99,.08,1.76,.32,2.31,.71,.55,.4,.88,.98,.97,1.76l-1.35,.06c-.05-.4-.25-.73-.59-.97-.34-.24-.82-.39-1.43-.44-.67-.06-1.18,0-1.51,.18-.34,.18-.52,.47-.56,.89-.03,.3,.04,.56,.21,.77,.17,.21,.5,.4,1,.57,.68,.22,1.32,.46,1.92,.7,.61,.25,1.04,.48,1.29,.69,.3,.25,.51,.54,.65,.86,.14,.32,.19,.69,.15,1.12Z"/><path class="cls-1" d="M192.52,10.66c-.27,1.55-.81,2.64-1.62,3.28-.81,.64-1.87,.85-3.17,.62-1.29-.22-2.2-.79-2.72-1.69s-.66-2.1-.4-3.59c.26-1.53,.79-2.61,1.59-3.26,.79-.65,1.85-.86,3.17-.63,1.35,.23,2.28,.78,2.79,1.63,.51,.85,.63,2.06,.36,3.63Zm-1.55-.27c.21-1.22,.18-2.14-.08-2.76-.27-.62-.83-1-1.68-1.15-.86-.15-1.53,.03-2.02,.52-.48,.5-.83,1.35-1.04,2.55-.2,1.17-.16,2.08,.11,2.73s.82,1.05,1.63,1.19c.88,.15,1.56-.02,2.04-.52,.48-.5,.82-1.35,1.03-2.56Z"/><path class="cls-1" d="M196.1,10.74l-1.21,5.06-1.45-.35,1.64-6.87c.12-.51,.22-.92,.28-1.23,.07-.31,.1-.53,.11-.64l1.37,.33c-.01,.1-.04,.24-.06,.39-.03,.16-.06,.33-.1,.52-.04,.19-.08,.39-.12,.59h.02c.48-.52,.96-.85,1.46-1,.5-.15,1.07-.14,1.72,.01,.96,.23,1.6,.64,1.93,1.24,.33,.6,.36,1.43,.11,2.5l-1.39,5.82-1.46-.35,1.32-5.54c.2-.83,.2-1.45,.01-1.84-.19-.39-.62-.67-1.28-.83-.7-.17-1.31-.06-1.83,.32-.52,.38-.88,1-1.08,1.85Z"/><path class="cls-1" d="M204.72,14c-.3,.98-.33,1.81-.08,2.47,.24,.66,.76,1.11,1.54,1.35,.62,.19,1.15,.22,1.6,.08,.45-.14,.8-.37,1.05-.71l1.15,.74c-.93,1.2-2.3,1.52-4.12,.97-1.27-.39-2.12-1.06-2.56-2.02-.43-.96-.42-2.19,.03-3.68,.43-1.42,1.1-2.4,1.99-2.96,.89-.55,1.96-.64,3.19-.27,1.27,.39,2.1,1.06,2.49,2.01,.4,.95,.36,2.19-.1,3.71l-.06,.19-6.13-1.87Zm4.99,.32c.2-.93,.17-1.66-.09-2.19-.25-.53-.74-.91-1.45-1.12-.69-.21-1.31-.15-1.86,.19-.55,.34-.96,.91-1.24,1.71l4.64,1.41Z"/><path class="cls-1" d="M224.36,20.74c-.6,1.45-1.36,2.41-2.29,2.85-.93,.45-2.01,.42-3.23-.08-1.21-.5-1.98-1.24-2.29-2.24-.32-.99-.19-2.19,.39-3.59,.59-1.43,1.34-2.38,2.26-2.84s1.99-.44,3.23,.07c1.27,.52,2.06,1.25,2.37,2.2,.31,.94,.17,2.15-.44,3.62Zm-1.45-.6c.47-1.15,.64-2.05,.52-2.71-.13-.66-.59-1.15-1.4-1.48-.81-.33-1.5-.31-2.08,.07s-1.1,1.14-1.56,2.26c-.45,1.1-.61,1.99-.48,2.69,.13,.7,.58,1.2,1.34,1.51,.83,.34,1.53,.32,2.11-.07s1.09-1.15,1.56-2.28Z"/><path class="cls-1" d="M229.22,19.28l-3.33,7.16-1.35-.63,3.33-7.16-1.14-.53,.46-.99,1.14,.53,.43-.92c.35-.74,.76-1.2,1.24-1.37,.48-.17,1.05-.1,1.72,.21,.38,.18,.68,.35,.91,.54l-.48,1.03c-.22-.15-.41-.27-.57-.34-.35-.16-.64-.19-.88-.09-.24,.1-.46,.39-.68,.85l-.34,.73,1.59,.74-.46,.99-1.59-.74Z"/><path class="cls-1" d="M235.6,31.36c-.49-.12-.97-.3-1.42-.55-.53-.29-.84-.65-.94-1.09-.1-.44,.01-.96,.33-1.55l2.86-5.26-.91-.5,.52-.96,.96,.52,1.35-1.55,.88,.48-.96,1.76,1.46,.79-.52,.96-1.46-.79-2.71,4.98c-.21,.38-.29,.68-.25,.9,.04,.22,.21,.41,.52,.58,.17,.09,.44,.19,.81,.31l-.53,.97Z"/><path class="cls-1" d="M241.7,26.36c.58-.34,1.13-.5,1.66-.5,.53,0,1.09,.18,1.68,.54,.83,.5,1.32,1.09,1.45,1.77s-.08,1.48-.65,2.41l-3.1,5.12-1.29-.78,2.95-4.87c.42-.7,.6-1.27,.55-1.73-.06-.46-.37-.85-.94-1.2-.6-.36-1.21-.45-1.82-.25s-1.14,.65-1.56,1.35l-2.74,4.53-1.28-.77,6.38-10.54,1.28,.77-1.66,2.74c-.12,.19-.24,.39-.38,.59-.14,.21-.26,.38-.36,.53-.1,.15-.16,.24-.19,.27h.02Z"/><path class="cls-1" d="M247.78,34.04c-.59,.85-.86,1.62-.83,2.32,.03,.7,.38,1.29,1.06,1.75,.53,.37,1.03,.56,1.5,.57,.47,0,.87-.11,1.21-.36l.87,1.05c-1.25,.86-2.66,.75-4.22-.34-1.09-.76-1.7-1.66-1.82-2.7-.12-1.05,.26-2.21,1.15-3.49,.85-1.22,1.78-1.96,2.8-2.21,1.02-.25,2.06-.01,3.12,.72,1.09,.75,1.67,1.65,1.76,2.68,.09,1.03-.32,2.2-1.23,3.5l-.11,.16-5.27-3.65Zm4.65,1.83c.47-.82,.67-1.53,.59-2.11-.08-.58-.43-1.09-1.04-1.51-.6-.41-1.21-.54-1.83-.38-.62,.16-1.19,.57-1.7,1.25l3.98,2.76Z"/><path class="cls-1" d="M264.45,46.46c-1.01,1.2-2.03,1.88-3.05,2.02-1.02,.14-2.04-.21-3.05-1.06-1-.84-1.5-1.79-1.5-2.83s.49-2.14,1.46-3.3c1-1.19,2-1.86,3.01-2.02,1.01-.16,2.03,.19,3.06,1.05,1.05,.88,1.58,1.82,1.59,2.82,0,1-.5,2.1-1.52,3.32Zm-1.2-1.01c.8-.95,1.24-1.76,1.32-2.42,.08-.67-.21-1.28-.88-1.84-.67-.56-1.34-.75-2-.56-.67,.19-1.39,.75-2.17,1.68-.76,.91-1.19,1.71-1.28,2.41-.09,.7,.18,1.32,.81,1.85,.69,.58,1.36,.77,2.03,.58,.66-.19,1.39-.76,2.18-1.69Z"/><path class="cls-1" d="M272.21,43.01l-8.32,9.08-1.1-1.01,8.32-9.08,1.1,1.01Z"/><path class="cls-1" d="M269.61,57.66c.04-.05,.11-.14,.22-.27,.11-.13,.23-.27,.37-.42,.14-.15,.26-.28,.37-.39l-.02-.02c-.6,.21-1.15,.24-1.65,.1-.5-.15-.99-.46-1.46-.94-.8-.8-1.12-1.66-.96-2.58,.16-.92,.79-1.92,1.89-3.02,1.11-1.11,2.13-1.74,3.08-1.91,.94-.17,1.8,.14,2.58,.92,.48,.48,.79,.97,.94,1.47,.15,.5,.12,1.03-.06,1.61h.01l.7-.71,2.63-2.64,1.06,1.06-7.4,7.4c-.33,.33-.6,.61-.82,.83-.21,.22-.36,.39-.46,.51l-1.01-1.01Zm-.11-6.47c-.89,.89-1.41,1.64-1.55,2.26s.04,1.19,.57,1.72c.6,.6,1.24,.83,1.92,.68s1.46-.65,2.34-1.53c.84-.84,1.32-1.59,1.44-2.25,.12-.66-.11-1.29-.71-1.88-.53-.53-1.11-.72-1.74-.56-.63,.16-1.39,.68-2.27,1.56Z"/><path class="cls-1" d="M275.92,58.26c-.77,.68-1.22,1.37-1.36,2.06-.14,.69,.07,1.34,.61,1.95,.43,.48,.87,.79,1.32,.91,.45,.12,.88,.1,1.26-.06l.59,1.23c-1.42,.54-2.76,.09-4.02-1.33-.88-1-1.25-2.01-1.12-3.06s.78-2.08,1.95-3.12c1.11-.98,2.19-1.48,3.25-1.48,1.05,0,2.01,.48,2.86,1.44,.88,.99,1.23,2,1.07,3.02-.16,1.02-.83,2.06-2.03,3.11l-.15,.13-4.25-4.8Zm4.08,2.88c.65-.69,1.01-1.33,1.07-1.91s-.16-1.16-.65-1.72c-.48-.54-1.04-.81-1.69-.81-.64,0-1.29,.27-1.95,.81l3.21,3.63Z"/><path class="cls-1" d="M284.25,70.94c-.67,.52-1.38,.68-2.13,.46-.76-.22-1.49-.78-2.2-1.69-.69-.88-1.08-1.67-1.16-2.37-.08-.7,.12-1.37,.62-1.99l1.02,.88c-.3,.4-.42,.82-.34,1.27,.07,.45,.32,.96,.76,1.51,.47,.6,.9,.96,1.3,1.09,.4,.13,.78,.06,1.15-.23,.28-.22,.43-.49,.45-.82,.02-.33-.08-.75-.3-1.27-.26-.61-.47-1.1-.61-1.47-.15-.37-.25-.66-.32-.87s-.1-.39-.12-.53c-.06-.42-.03-.8,.08-1.15,.11-.35,.34-.66,.69-.93,.64-.51,1.31-.66,2.01-.47s1.39,.73,2.08,1.61c.61,.78,.96,1.51,1.05,2.18,.09,.67-.12,1.31-.63,1.91l-.96-.96c.26-.31,.36-.68,.31-1.09-.06-.42-.27-.86-.65-1.34-.42-.53-.81-.86-1.17-.99s-.7-.06-1.03,.2c-.24,.19-.38,.41-.42,.68-.04,.26,.05,.64,.26,1.12,.3,.65,.56,1.28,.79,1.89,.23,.61,.36,1.09,.37,1.42,.02,.39-.05,.74-.19,1.06-.14,.32-.38,.61-.72,.88Z"/><path class="cls-1" d="M285.3,76.58c-.39-.32-.74-.69-1.04-1.11-.35-.49-.47-.95-.37-1.39,.1-.44,.43-.86,.98-1.25l4.87-3.5-.61-.84,.88-.63,.64,.89,1.89-.81,.58,.81-1.63,1.17,.97,1.35-.88,.63-.97-1.35-4.61,3.31c-.35,.25-.56,.49-.61,.7-.06,.22,.01,.47,.22,.75,.11,.15,.31,.36,.6,.63l-.9,.64Z"/><path class="cls-1" d="M296.87,77.94l-7.59,4.8-.8-1.26,7.59-4.8,.8,1.26Zm2.82-1.78l-1.21,.76-.8-1.26,1.21-.76,.8,1.26Z"/><path class="cls-1" d="M295.72,83.29l-4.52,2.59-.74-1.3,6.13-3.52c.46-.26,.82-.48,1.09-.64,.27-.17,.45-.28,.55-.36l.7,1.22c-.09,.06-.2,.14-.33,.22-.14,.09-.29,.18-.45,.28s-.34,.21-.52,.32v.02c.72-.01,1.3,.12,1.75,.38,.45,.26,.84,.69,1.17,1.27,.49,.85,.63,1.6,.42,2.25-.21,.65-.79,1.24-1.75,1.79l-5.19,2.98-.75-1.3,4.94-2.83c.74-.43,1.19-.84,1.35-1.25,.16-.41,.06-.91-.28-1.5-.36-.62-.85-.99-1.49-1.11-.63-.12-1.33,.04-2.09,.48Z"/><path class="cls-1" d="M298.62,99.93c-.33-.38-.6-.81-.83-1.28-.26-.54-.29-1.02-.12-1.43s.57-.77,1.18-1.06l5.41-2.57-.45-.94,.98-.47,.47,.99,2-.46,.43,.9-1.81,.86,.71,1.5-.98,.47-.71-1.5-5.12,2.43c-.39,.19-.63,.38-.73,.58s-.07,.46,.08,.78c.08,.17,.24,.41,.47,.73l-1,.47Z"/><path class="cls-1" d="M306.5,99.48c.67,.07,1.21,.26,1.64,.57,.43,.31,.77,.78,1.04,1.42,.38,.9,.42,1.66,.13,2.28-.29,.62-.94,1.14-1.95,1.57l-5.52,2.31-.58-1.39,5.25-2.2c.75-.31,1.24-.67,1.46-1.07,.22-.4,.2-.91-.05-1.52-.27-.65-.71-1.07-1.33-1.28-.61-.2-1.3-.14-2.06,.17l-4.88,2.05-.58-1.38,11.36-4.76,.58,1.38-2.96,1.24c-.2,.09-.42,.17-.65,.26-.23,.08-.43,.16-.6,.22-.17,.06-.27,.1-.31,.11v.02Z"/><path class="cls-1" d="M306.9,109.28c-.97,.34-1.65,.8-2.04,1.39s-.45,1.27-.18,2.04c.21,.61,.51,1.06,.88,1.34,.37,.28,.77,.42,1.19,.42l.08,1.36c-1.51-.04-2.58-.96-3.21-2.76-.44-1.25-.39-2.34,.12-3.26s1.52-1.63,2.99-2.14c1.4-.49,2.59-.53,3.56-.14,.98,.4,1.67,1.2,2.1,2.42,.43,1.25,.38,2.32-.15,3.2-.54,.88-1.56,1.59-3.06,2.11l-.19,.07-2.1-6.05Zm2.68,4.22c.87-.39,1.44-.84,1.72-1.36,.28-.52,.3-1.13,.05-1.84-.24-.68-.66-1.15-1.25-1.39-.6-.24-1.3-.24-2.11,0l1.59,4.58Z"/><path class="cls-1" d="M314.14,125.9l-6.55-.13-.4-1.68,8.17-4.51,.34,1.44-5.7,2.93c-.16,.08-.37,.19-.62,.31-.25,.12-.51,.24-.79,.37,.27,0,.53,0,.8,0,.27,0,.53,0,.8,.01l6.4,.17,.37,1.56-5.64,2.94c-.24,.12-.48,.25-.72,.37-.24,.12-.49,.24-.72,.36,.27,0,.56,0,.85,0,.3,0,.56,0,.79,0l6.34,.14,.33,1.42-9.33-.44-.4-1.69,5.82-2.98c.21-.11,.43-.21,.65-.31,.22-.1,.43-.2,.65-.3-.12,0-.33,.01-.63,.02s-.56,.01-.8,0Z"/><path class="cls-1" d="M315.18,141.36c-1.55,.25-2.76,.1-3.63-.46-.87-.56-1.41-1.49-1.62-2.79-.21-1.29,.03-2.34,.71-3.12,.68-.79,1.77-1.3,3.26-1.54,1.53-.25,2.73-.1,3.6,.44,.87,.54,1.41,1.47,1.63,2.79,.22,1.35,0,2.41-.64,3.17-.64,.76-1.75,1.27-3.32,1.52Zm-.25-1.55c1.22-.2,2.08-.52,2.58-.98,.5-.45,.67-1.11,.54-1.97-.14-.86-.52-1.44-1.15-1.74-.63-.29-1.54-.34-2.74-.15-1.17,.19-2.02,.52-2.54,.99s-.72,1.12-.59,1.93c.14,.89,.53,1.47,1.16,1.76,.63,.29,1.55,.33,2.76,.14Z"/><path class="cls-1" d="M315.74,144.78l-4.65,.52-.17-1.49,6.85-.76c.31-.04,.64-.08,.99-.12,.34-.05,.71-.1,1.08-.16l.16,1.4c-.25,.04-.48,.07-.68,.1-.2,.03-.38,.06-.53,.08-.15,.02-.28,.04-.38,.05-.1,.01-.18,.02-.23,.03v.03c.56,.1,1,.24,1.32,.41,.3,.16,.51,.36,.65,.6,.13,.24,.22,.54,.26,.9,.02,.2,.02,.41-.02,.61l-1.36,.15c.03-.19,.03-.46,0-.8-.07-.62-.39-1.06-.95-1.32-.57-.27-1.34-.34-2.33-.23Z"/><path class="cls-1" d="M323.88,149.83l-12.28,.98-.12-1.49,12.28-.98,.12,1.49Z"/><path class="cls-1" d="M312,158.76c.06-.01,.17-.03,.34-.05,.17-.02,.35-.04,.56-.05,.2-.02,.38-.03,.54-.03v-.03c-.59-.26-1.01-.61-1.28-1.05-.27-.45-.41-1.01-.44-1.68-.04-1.13,.31-1.98,1.05-2.54,.74-.56,1.89-.87,3.44-.93,1.56-.06,2.75,.17,3.55,.69,.8,.52,1.22,1.33,1.27,2.43,.03,.68-.08,1.25-.31,1.71-.23,.46-.61,.84-1.15,1.14v.02l1-.05,3.72-.14,.05,1.49-10.46,.39c-.47,.02-.86,.04-1.17,.06s-.53,.04-.68,.06l-.05-1.43Zm4.32-4.81c-1.25,.05-2.15,.25-2.68,.6-.53,.35-.78,.9-.75,1.65,.03,.85,.35,1.45,.95,1.81,.6,.36,1.52,.52,2.75,.47,1.19-.04,2.05-.27,2.59-.67,.54-.4,.79-1.02,.76-1.86-.03-.75-.33-1.29-.89-1.6-.57-.31-1.48-.45-2.73-.4Z"/><path class="cls-1" d="M311.65,173.12l.9,.08-.11,1.32,7.74,.66,.22-2.61-2.42-.21,.09-1.03,3.32,.28-.73,8.6-3.32-.28,.09-1.03,2.42,.21,.22-2.56-7.74-.66-.11,1.32-.9-.08,.34-4.01Z"/><path class="cls-1" d="M311.06,179.88l.89,.13-.18,1.23,7.87,1.15,.18-1.21,.87,.13-.36,2.46-4-.58-.02-.47c.29,.53,.51,1.06,.67,1.58,.16,.52,.2,1.03,.13,1.55-.09,.61-.35,1.09-.79,1.47-.44,.37-1.02,.5-1.73,.4l-3.68-.54-.18,1.21-.89-.13,.52-3.55,.89,.13-.16,1.09,3.45,.5c.46,.07,.83,.01,1.12-.17s.46-.47,.52-.86c.06-.43,.02-.88-.12-1.37-.14-.49-.33-.95-.58-1.39l.54,.51-4.44-.65-.16,1.08-.89-.13,.52-3.55Z"/><path class="cls-1" d="M308.78,192.38c.14-.69,.41-1.28,.81-1.79s.9-.86,1.49-1.09c.59-.22,1.23-.26,1.92-.12,.71,.14,1.29,.42,1.75,.84,.45,.42,.77,.91,.95,1.49,.18,.58,.2,1.19,.07,1.84-.13,.67-.39,1.21-.77,1.64-.38,.43-.84,.72-1.41,.87-.56,.15-1.19,.16-1.88,.02l-.32-.06,1.13-5.6,.76,.17-.88,4.37c.43,.09,.82,.08,1.16-.03,.34-.11,.62-.3,.84-.57,.22-.27,.37-.6,.45-.98,.08-.41,.06-.8-.07-1.18s-.35-.69-.67-.96-.74-.45-1.25-.56c-.54-.11-1.03-.11-1.47,.01-.44,.12-.8,.34-1.09,.66-.29,.32-.48,.71-.58,1.18-.1,.5-.09,.98,.02,1.44,.11,.46,.29,.88,.53,1.25l-.84,.28c-.28-.37-.5-.82-.65-1.35-.15-.53-.15-1.12-.02-1.77Z"/><path class="cls-1" d="M306.06,203.56c.19-.66,.54-1.14,1.02-1.44,.49-.29,1-.36,1.53-.21,.49,.14,.85,.38,1.07,.69s.35,.69,.36,1.12c.02,.43-.04,.88-.18,1.35-.11,.37-.25,.74-.42,1.11s-.36,.72-.57,1.06l.06-.51,.86,.25c.51,.15,.93,.12,1.25-.08s.55-.54,.68-1c.09-.3,.14-.68,.16-1.11,.02-.44-.02-.86-.1-1.26l.89-.13c.13,.45,.18,.93,.15,1.44-.03,.51-.09,.96-.21,1.34-.17,.57-.4,1.02-.7,1.37-.3,.35-.66,.58-1.06,.69-.41,.11-.84,.1-1.29-.03l-3.44-1.01-.3,1.01-.86-.25,.61-2.07,.94,.17-.13,.46c-.25-.53-.4-1.03-.46-1.48s-.01-.95,.14-1.48Zm.78,.42c-.12,.4-.15,.83-.09,1.28,.06,.45,.2,.95,.43,1.49l-.44-.66,1.89,.56-.4,.29c.17-.26,.33-.56,.49-.9,.16-.34,.29-.7,.41-1.09,.11-.38,.13-.75,.05-1.12s-.35-.62-.83-.76c-.33-.1-.63-.07-.91,.09-.28,.15-.48,.43-.59,.82Z"/><path class="cls-1" d="M304.83,208.42l.85,.3-.43,1.22,4.6,1.63,.43-1.22,.85,.3-.84,2.39-.87-.31,.11-.47c.15,.56,.25,1.1,.29,1.62,.04,.52-.02,1.02-.18,1.49-.2,.58-.56,1-1.06,1.28-.5,.27-1.09,.29-1.77,.05l-3.51-1.24-.41,1.17-.85-.3,1.2-3.38,.85,.3-.37,1.04,3.29,1.16c.44,.16,.82,.17,1.14,.04,.32-.13,.55-.38,.68-.75,.14-.38,.19-.81,.16-1.26s-.12-.96-.26-1.52l.35,.65-4.23-1.5-.4,1.14-.85-.3,1.25-3.53Z"/><path class="cls-1" d="M300.33,219.93c.27-.65,.65-1.17,1.15-1.56s1.05-.63,1.66-.71c.61-.08,1.24,0,1.87,.28,.64,.27,1.14,.64,1.5,1.12,.37,.48,.58,1.02,.65,1.62,.07,.6-.03,1.21-.29,1.84-.25,.61-.6,1.05-1.04,1.34-.44,.28-.88,.4-1.32,.33l.09-.22,1.27,.53-.41,.97-2.21-.92,.37-.88c.49,.09,.93,.03,1.32-.19,.39-.22,.69-.58,.9-1.07,.19-.45,.26-.89,.21-1.31-.05-.43-.21-.81-.47-1.15s-.62-.6-1.06-.78c-.47-.2-.93-.27-1.37-.23-.44,.04-.83,.19-1.18,.45-.35,.25-.61,.6-.79,1.04-.23,.55-.31,1.05-.24,1.48,.07,.43,.21,.85,.42,1.27l-.91,.19c-.27-.47-.43-1-.47-1.58s.07-1.2,.34-1.85Z"/><path class="cls-1" d="M298.85,223.79l.82,.38-.55,1.17,4.42,2.06,.54-1.16,.82,.38-1.06,2.28-5.24-2.44-.51,1.09-.82-.38,1.58-3.39Zm6.64,5.03c.11-.23,.27-.39,.5-.48s.45-.09,.68,.02c.23,.1,.38,.27,.45,.51s.06,.46-.05,.69c-.11,.24-.28,.4-.5,.49-.22,.09-.45,.08-.67-.02-.23-.11-.38-.27-.45-.5-.08-.23-.06-.46,.05-.7Z"/><path class="cls-1" d="M295.06,231.13c.32-.62,.75-1.12,1.27-1.5,.52-.37,1.1-.59,1.73-.64s1.25,.08,1.88,.41c.64,.33,1.13,.76,1.45,1.29,.32,.52,.49,1.09,.5,1.69,.01,.61-.13,1.2-.43,1.78-.31,.6-.71,1.06-1.19,1.37-.48,.31-1.01,.46-1.59,.45-.58,0-1.19-.17-1.81-.5l-.29-.15,2.62-5.07,.69,.37-2.04,3.96c.39,.2,.77,.3,1.12,.28,.36-.01,.68-.12,.97-.31,.29-.2,.52-.47,.7-.82,.19-.37,.28-.76,.26-1.15-.02-.39-.15-.76-.38-1.11-.24-.35-.59-.64-1.05-.88-.49-.26-.97-.38-1.42-.39s-.86,.11-1.22,.33c-.37,.23-.66,.55-.88,.97-.23,.45-.36,.92-.38,1.39-.02,.48,.04,.93,.17,1.35l-.88,.04c-.17-.43-.26-.92-.25-1.47,0-.55,.16-1.12,.46-1.71Z"/><path class="cls-1" d="M293.46,234.65l.78,.46-.65,1.11,4.21,2.47,.65-1.11,.78,.46-1.28,2.18-.79-.47,.2-.44c.04,.58,.04,1.12-.02,1.64-.06,.52-.21,.99-.46,1.42-.31,.53-.74,.88-1.28,1.05s-1.13,.08-1.75-.29l-3.21-1.89-.63,1.07-.78-.46,1.82-3.09,.78,.46-.56,.95,3,1.77c.4,.24,.77,.32,1.11,.26s.61-.27,.81-.61c.21-.35,.34-.75,.39-1.21,.06-.45,.07-.97,.04-1.54l.22,.7-3.87-2.27-.61,1.04-.78-.46,1.9-3.22Z"/><path class="cls-1" d="M287.39,244.6c.35-.53,.74-.85,1.19-.95,.45-.1,.96,.03,1.52,.4l3.19,2.08,.6-.93,.76,.49-.6,.93,1.91,1.24-.27,1.32-2.32-1.51-.96,1.48-.75-.49,.96-1.48-3.13-2.04c-.35-.23-.64-.33-.85-.31-.22,.02-.42,.17-.59,.45l-.56,.85-.75-.49,.68-1.04Z"/><path class="cls-1" d="M283.25,250.67l.71,.55-.81,1.05,6.14,4.76,.81-1.05,.71,.55-5.11,6.58-2.24-1.74,.66-.85,1.53,1.19,2.78-3.59-2.57-1.99-1.82,2.35,.89,.69-.43,.55-2.53-1.96,.43-.55,.9,.7,1.82-2.35-2.83-2.2-2.83,3.65,1.57,1.22-.66,.85-2.28-1.77,5.16-6.65Z"/><path class="cls-1" d="M272.64,258.73c.26-.3,.56-.58,.9-.86,.34-.27,.69-.53,1.06-.76l.57,.84c-.35,.22-.67,.45-.98,.69-.31,.24-.57,.48-.78,.73-.46,.52-.69,1.03-.71,1.53-.02,.5,.22,.98,.72,1.42l.89,.79-.21,.34c-.04-.49,.03-.97,.2-1.44,.17-.47,.41-.88,.72-1.23,.41-.47,.89-.81,1.44-1.02,.55-.21,1.12-.26,1.71-.15,.59,.11,1.16,.4,1.7,.88,.56,.49,.94,1.02,1.12,1.58,.18,.56,.21,1.12,.06,1.68-.14,.56-.42,1.07-.83,1.54-.3,.34-.69,.63-1.16,.88s-.92,.37-1.35,.35l.22-.26,.69,.61-1.58,1.8-.68-.59,.74-.84-4.46-3.91c-.54-.48-.89-.98-1.03-1.5-.14-.52-.11-1.04,.07-1.56,.19-.52,.5-1.03,.93-1.52Zm2.93,2.84c-.26,.3-.47,.67-.63,1.11-.16,.44-.22,.89-.19,1.34l-.2-.72,3.17,2.76-.69-.04c.45-.07,.9-.21,1.34-.43,.44-.22,.8-.48,1.07-.8,.28-.32,.46-.68,.53-1.06,.07-.38,.03-.77-.14-1.17-.16-.4-.46-.79-.88-1.16-.39-.34-.79-.56-1.2-.64s-.8-.05-1.18,.1c-.38,.14-.71,.38-1,.72Z"/><path class="cls-1" d="M268.91,263.59l.73,.72-.54,.54c-.21,.21-.36,.4-.45,.56-.09,.16-.13,.34-.11,.55,.02,.2,.11,.47,.28,.79l.45,.95,.37-.38,5.56,1.99,.87-.88,.64,.63-2.46,2.5-.64-.63,.69-.7-4.64-1.75,1.98,4.46,.81-.82,.64,.63-2.44,2.48-.64-.63,.76-.78-2.66-6.1c-.23-.51-.4-.95-.52-1.31s-.13-.71-.04-1.05,.34-.71,.75-1.12l.61-.62Z"/><path class="cls-1" d="M263.94,268.7l.61,.67-.89,.81,5.06,5.58,.87-.79,.61,.67-1.74,1.58-.53-.56,.15-.39c-.02,.49-.13,.96-.35,1.43-.21,.46-.5,.86-.86,1.19-.45,.4-.94,.67-1.48,.81-.54,.14-1.09,.12-1.65-.07-.56-.18-1.08-.55-1.58-1.09-.51-.56-.83-1.15-.95-1.76-.13-.61-.09-1.2,.11-1.76,.2-.56,.53-1.05,.98-1.46,.25-.23,.52-.41,.8-.54,.28-.13,.56-.23,.82-.27,.26-.05,.5-.04,.7,.02l-.16,.21-1.73-1.94-.97,.88-.6-.67,2.78-2.52Zm-.85,5.39c-.5,.45-.76,.99-.81,1.62-.04,.63,.22,1.25,.78,1.87,.55,.6,1.13,.93,1.75,.96,.62,.04,1.17-.16,1.65-.6,.15-.14,.31-.33,.47-.57,.16-.25,.29-.52,.4-.83,.1-.31,.14-.62,.11-.95l.18,.8-2.88-3.15,.64,.13c-.43-.04-.85,0-1.25,.14-.4,.13-.75,.32-1.03,.58Z"/><path class="cls-1" d="M256.98,278.33c.49-.4,.96-.59,1.42-.55s.9,.32,1.33,.83l2.43,2.93,.85-.7,.57,.69-.85,.7,1.45,1.75-.65,1.18-1.77-2.13-1.36,1.13-.58-.69,1.36-1.13-2.38-2.88c-.27-.32-.51-.51-.72-.55-.21-.04-.45,.04-.7,.25l-.79,.65-.57-.69,.96-.79Z"/><path class="cls-1" d="M255.4,279.62l.55,.71-1.02,.79,2.99,3.85,1.01-.78,.55,.71-1.99,1.54-3.54-4.57-.95,.74-.55-.71,2.95-2.29Zm3.61,7.51c.2-.15,.42-.22,.66-.2s.44,.13,.59,.32c.15,.2,.21,.42,.17,.66-.04,.24-.16,.44-.36,.59-.21,.16-.43,.23-.67,.21s-.44-.13-.59-.33c-.15-.2-.21-.41-.17-.65,.04-.24,.16-.44,.37-.6Z"/><path class="cls-1" d="M249.7,283.7c.56-.4,1.13-.57,1.69-.5,.56,.07,1.01,.33,1.33,.78,.3,.42,.43,.82,.41,1.21s-.16,.76-.41,1.11c-.25,.35-.58,.66-.97,.95-.31,.22-.65,.43-1.02,.61-.36,.18-.73,.34-1.1,.49l.37-.37,.52,.73c.31,.43,.65,.67,1.03,.71,.38,.04,.76-.08,1.16-.37,.26-.18,.53-.44,.81-.78s.52-.69,.7-1.05l.78,.45c-.18,.43-.44,.84-.77,1.23-.34,.39-.67,.7-.99,.93-.48,.34-.95,.56-1.4,.64-.45,.09-.87,.05-1.26-.11-.39-.16-.72-.44-1-.82l-2.08-2.92-.86,.61-.52-.73,1.76-1.25,.64,.72-.39,.28c.14-.57,.32-1.05,.55-1.45,.23-.4,.58-.75,1.03-1.08Zm.35,.81c-.34,.24-.63,.56-.87,.95-.24,.39-.43,.87-.58,1.44l.06-.79,1.15,1.61-.5-.02c.29-.1,.61-.23,.94-.4,.34-.17,.67-.37,.99-.6,.32-.23,.57-.51,.73-.85,.17-.33,.1-.7-.19-1.11-.2-.28-.45-.44-.77-.49s-.64,.04-.97,.28Z"/><path class="cls-1" d="M245.72,286.77l.48,.76-1.09,.69,2.62,4.12,1.09-.69,.48,.76-2.14,1.36-.49-.77,.37-.3c-.23,.53-.48,1.02-.77,1.45-.29,.44-.64,.79-1.06,1.06-.52,.33-1.06,.45-1.62,.35s-1.04-.45-1.43-1.06l-2-3.14-1.05,.67-.48-.76,3.03-1.92,.48,.76-.93,.59,1.87,2.94c.25,.39,.54,.64,.87,.74,.33,.1,.66,.04,1-.17,.34-.22,.65-.52,.9-.9s.5-.83,.73-1.35l-.12,.72-2.41-3.79-1.02,.65-.48-.76,3.16-2Z"/><path class="cls-1" d="M230.63,295.44c.62-.32,1.25-.47,1.88-.45,.63,.02,1.2,.19,1.73,.52,.52,.33,.94,.8,1.26,1.42,.32,.61,.46,1.22,.44,1.82-.03,.6-.21,1.15-.54,1.66-.33,.5-.8,.91-1.41,1.22-.58,.3-1.13,.42-1.65,.36-.52-.06-.93-.26-1.22-.59l.21-.11,.63,1.22-.94,.48-1.1-2.13,.85-.44c.31,.39,.69,.62,1.14,.7,.44,.08,.9,0,1.38-.24,.43-.22,.77-.51,1-.87,.24-.36,.36-.75,.38-1.18,.01-.43-.09-.85-.31-1.28-.23-.45-.53-.81-.9-1.06-.37-.25-.76-.39-1.19-.42s-.85,.07-1.28,.29c-.53,.28-.91,.6-1.13,.98-.22,.38-.39,.79-.5,1.24l-.82-.44c.09-.53,.31-1.04,.65-1.51,.34-.48,.82-.88,1.45-1.2Z"/><path class="cls-1" d="M227,297.45l.38,.82-1.17,.55,2.06,4.42,1.16-.54,.38,.82-2.28,1.06-2.44-5.24-1.09,.51-.38-.82,3.39-1.58Zm1.85,8.12c.23-.11,.46-.12,.69-.05,.23,.07,.4,.22,.51,.45,.11,.23,.11,.45,.02,.68-.09,.23-.26,.39-.48,.5-.24,.11-.47,.13-.7,.05-.23-.08-.4-.23-.5-.45-.11-.23-.11-.45-.02-.67,.09-.22,.25-.39,.49-.5Z"/><path class="cls-1" d="M219.83,300.66l4.56,4.37,1.05-.44,.34,.83-3.3,1.36-.34-.83,1-.42-3.44-3.43v4.86l.99-.41,.34,.83-3.11,1.29-.34-.83,.99-.41,.2-6.33,1.05-.44Z"/><path class="cls-1" d="M215.03,302.58l.31,.85-1.21,.44,1.67,4.59,1.2-.44,.31,.85-2.37,.86-1.97-5.43-1.13,.41-.31-.85,3.52-1.28Zm1.13,8.25c.23-.09,.46-.08,.69,.01,.23,.09,.38,.26,.47,.49s.07,.46-.04,.68-.29,.37-.52,.45c-.24,.09-.48,.09-.7,0-.22-.09-.37-.26-.46-.49s-.07-.46,.04-.67c.11-.21,.29-.37,.53-.46Z"/><path class="cls-1" d="M210.76,304.12l.28,.86-1.18,.39,2.5,7.55,1.15-.38,.28,.84-2.34,.77-2.77-8.39-1.03,.34-.28-.86,3.41-1.12Z"/><path class="cls-1" d="M206.71,305.45l.26,.86-1.24,.37,1.39,4.68,1.22-.36,.26,.86-2.41,.72-1.65-5.54-1.16,.34-.26-.86,3.58-1.07Zm.65,8.3c.24-.07,.47-.05,.69,.05,.22,.11,.37,.28,.44,.52,.07,.24,.04,.46-.08,.67-.13,.21-.31,.35-.55,.42-.25,.07-.48,.06-.7-.05-.22-.11-.36-.28-.43-.52-.07-.24-.05-.46,.08-.67,.12-.21,.31-.35,.56-.42Z"/><path class="cls-1" d="M202,306.85l.22,.86-2.95,5.84,3.16-.81-.34-1.33,.92-.24,.55,2.17-5.5,1.4-.23-.91,2.96-5.81-3.31,.85,.38,1.48-.96,.24-.59-2.31,5.68-1.45Z"/><path class="cls-1" d="M192.8,308.85c.68-.14,1.26-.06,1.75,.24,.49,.29,.79,.71,.9,1.26,.1,.5,.06,.92-.12,1.27-.18,.35-.45,.63-.83,.84s-.8,.37-1.28,.47c-.38,.08-.77,.12-1.18,.14-.41,.02-.81,.02-1.21,0l.48-.18,.18,.88c.11,.52,.32,.88,.65,1.07s.73,.23,1.21,.14c.31-.06,.67-.19,1.06-.38,.4-.19,.75-.42,1.07-.68l.53,.73c-.34,.32-.74,.59-1.21,.81-.46,.22-.89,.36-1.28,.44-.58,.12-1.09,.12-1.54,.02-.45-.11-.82-.31-1.1-.62-.29-.31-.48-.69-.57-1.16l-.71-3.52-1.03,.21-.18-.88,2.12-.43,.29,.91-.47,.09c.36-.47,.72-.83,1.1-1.1,.37-.27,.83-.45,1.38-.56Zm-.01,.89c-.41,.08-.8,.25-1.18,.52-.38,.26-.75,.62-1.12,1.08l.38-.7,.39,1.93-.44-.22c.31,.03,.65,.04,1.03,.02s.76-.07,1.15-.15c.39-.08,.73-.24,1.01-.47s.38-.6,.28-1.09c-.07-.33-.23-.59-.5-.77-.27-.18-.6-.23-1-.14Z"/><path class="cls-1" d="M184.93,310.47c.63-.1,1.13-.02,1.5,.25,.38,.27,.62,.73,.72,1.39l.6,3.76,1.09-.17,.14,.89-1.09,.17,.36,2.25-1.17,.68-.43-2.74-1.75,.28-.14-.89,1.75-.28-.59-3.69c-.07-.41-.18-.69-.34-.84s-.4-.19-.73-.14l-1.01,.16-.14-.89,1.23-.19Z"/><path class="cls-1" d="M182.92,310.77l.11,.89-1.28,.16,.61,4.84,1.27-.16,.11,.89-2.5,.32-.72-5.73-1.2,.15-.11-.89,3.71-.47Zm-.71,8.3c.25-.03,.47,.02,.67,.16,.2,.14,.32,.33,.35,.58,.03,.25-.03,.46-.19,.65-.16,.19-.36,.29-.61,.33-.26,.03-.49-.02-.68-.16-.19-.14-.31-.34-.34-.58-.03-.25,.03-.46,.18-.65,.15-.19,.36-.29,.62-.33Z"/><path class="cls-1" d="M174.87,311.46c.71-.06,1.35,.03,1.92,.28,.57,.25,1.02,.62,1.37,1.13,.34,.51,.55,1.11,.61,1.83s-.04,1.34-.29,1.89c-.25,.55-.64,.99-1.16,1.33-.52,.33-1.13,.53-1.84,.59-.72,.06-1.37-.03-1.93-.27-.57-.24-1.02-.61-1.37-1.11-.35-.5-.55-1.1-.61-1.8-.06-.71,.04-1.35,.3-1.9,.26-.56,.65-1.01,1.17-1.35,.52-.34,1.14-.55,1.86-.61Zm.08,.98c-.47,.04-.88,.18-1.21,.43-.33,.24-.58,.57-.74,.97s-.22,.86-.17,1.38c.04,.51,.18,.94,.4,1.3,.22,.36,.52,.62,.89,.8,.37,.18,.79,.25,1.26,.21,.46-.04,.86-.18,1.18-.42,.33-.24,.57-.55,.73-.95,.16-.4,.22-.85,.17-1.35-.04-.51-.18-.95-.4-1.31-.22-.37-.52-.64-.88-.83-.36-.19-.78-.26-1.24-.22Z"/><path class="cls-1" d="M170.64,312.01l.03,.9-1.29,.04,.15,4.88,1.29-.04,.03,.9-2.53,.08-.03-.92,.47-.06c-.47,.34-.93,.63-1.4,.86-.47,.23-.95,.35-1.45,.37-.61,.02-1.14-.16-1.57-.52s-.67-.91-.69-1.64l-.11-3.72-1.24,.04-.03-.9,3.58-.11,.03,.9-1.1,.03,.1,3.48c.01,.46,.14,.82,.37,1.08s.55,.37,.95,.36c.41-.01,.82-.12,1.23-.31,.41-.19,.85-.46,1.32-.79l-.48,.56-.14-4.49-1.21,.04-.03-.9,3.74-.11Z"/><path class="cls-1" d="M156.86,312.13l-.04,.9-1.29-.06-.23,4.87,1.27,.06-.04,.9-2.51-.12,.27-5.77-1.21-.06,.04-.9,3.74,.17Zm-2.13,8.05c.25,.01,.46,.1,.63,.28,.17,.17,.25,.38,.24,.63-.01,.25-.11,.45-.3,.61s-.41,.23-.66,.22c-.26-.01-.47-.1-.64-.28-.17-.17-.25-.38-.23-.63s.11-.45,.29-.61c.18-.16,.41-.23,.67-.22Z"/><path class="cls-1" d="M148.69,311.45c.35,.03,.68,.1,1,.22,.31,.12,.58,.27,.81,.44,.22,.18,.39,.38,.49,.6l-.24-.17,.06-.75,.98,.08-.2,2.3-.88-.07v-1.11l.16,.82c-.09-.43-.34-.77-.76-1.04-.42-.26-.86-.41-1.33-.45-.43-.04-.79,.02-1.1,.16-.3,.15-.47,.37-.49,.67-.03,.36,.07,.62,.3,.78,.23,.16,.61,.32,1.13,.48l.91,.28c.61,.21,1.08,.46,1.42,.76,.34,.3,.48,.75,.43,1.38-.05,.6-.32,1.04-.82,1.32-.5,.28-1.09,.39-1.79,.33-.27-.02-.55-.08-.85-.18-.29-.1-.56-.23-.79-.4-.24-.17-.4-.36-.48-.59l.25,.11-.07,.76-1-.08,.19-2.29,.88,.08,.08,1.63-.19-1.14c.03,.21,.14,.4,.34,.57,.2,.17,.43,.31,.7,.43,.27,.11,.54,.18,.81,.21,.36,.03,.69-.02,.99-.14,.3-.12,.46-.35,.49-.67,.02-.25-.06-.45-.25-.6-.19-.15-.5-.3-.94-.46l-.85-.26c-.42-.14-.8-.29-1.13-.46-.33-.17-.59-.4-.77-.68-.18-.28-.25-.67-.21-1.15,.04-.44,.19-.79,.46-1.06,.27-.27,.6-.45,1-.55,.4-.1,.82-.14,1.25-.1Z"/><path class="cls-1" d="M136.65,309.86c.7,.12,1.3,.37,1.79,.75s.83,.86,1.04,1.44c.21,.58,.25,1.22,.13,1.92-.12,.7-.37,1.29-.76,1.76-.38,.47-.87,.8-1.45,.99-.58,.19-1.23,.23-1.93,.11-.71-.12-1.32-.37-1.8-.75-.49-.38-.84-.85-1.05-1.42-.21-.57-.26-1.2-.14-1.9,.12-.7,.38-1.29,.77-1.77,.39-.47,.88-.81,1.47-1.02,.59-.2,1.24-.25,1.95-.12Zm-.17,.97c-.47-.08-.89-.04-1.28,.11-.38,.15-.7,.4-.96,.75-.25,.35-.43,.78-.51,1.29-.09,.5-.07,.95,.06,1.36,.13,.4,.35,.73,.66,1,.31,.27,.7,.44,1.17,.52,.46,.08,.88,.04,1.25-.11,.38-.15,.69-.39,.94-.74,.25-.34,.42-.76,.51-1.27,.09-.5,.07-.96-.06-1.37-.12-.41-.34-.75-.64-1.02s-.69-.44-1.14-.52Z"/><path class="cls-1" d="M132.38,309.33l-.2,.88-1.26-.29-1.09,4.76,1.26,.29-.2,.88-2.47-.56,.2-.9,.48,.06c-.54,.21-1.06,.37-1.57,.48-.51,.1-1.01,.1-1.5-.01-.6-.14-1.06-.44-1.39-.9-.33-.46-.41-1.05-.25-1.76l.83-3.63-1.21-.28,.2-.88,3.5,.8-.2,.88-1.08-.25-.78,3.4c-.1,.45-.07,.83,.09,1.14,.16,.3,.44,.5,.82,.59,.4,.09,.82,.09,1.27,.01,.45-.08,.94-.23,1.48-.43l-.6,.42,1-4.38-1.18-.27,.2-.88,3.65,.83Z"/><path class="cls-1" d="M120.36,306.13c.67,.19,1.25,.51,1.72,.95s.79,.96,.96,1.57c.17,.6,.17,1.24-.03,1.92-.2,.7-.53,1.26-.98,1.67-.45,.42-.97,.69-1.56,.83s-1.2,.11-1.83-.08c-.65-.19-1.18-.49-1.57-.89-.4-.41-.65-.9-.75-1.47-.11-.57-.06-1.2,.13-1.87l.09-.31,5.49,1.58-.23,.75-4.28-1.23c-.12,.42-.14,.81-.06,1.16,.08,.35,.25,.64,.5,.89,.25,.24,.56,.42,.95,.53,.4,.12,.79,.12,1.18,.03s.72-.29,1.01-.59,.51-.7,.65-1.2c.15-.53,.19-1.02,.1-1.47s-.27-.82-.57-1.14-.67-.54-1.13-.67c-.49-.14-.97-.17-1.44-.1-.47,.08-.9,.22-1.29,.43l-.21-.86c.39-.25,.85-.43,1.39-.54,.54-.1,1.13-.07,1.77,.12Z"/><path class="cls-1" d="M108.42,302.12c.67,.26,1.2,.62,1.6,1.09,.4,.47,.65,1.01,.74,1.61,.09,.6,0,1.24-.25,1.91-.26,.67-.62,1.19-1.09,1.58-.47,.38-1.01,.61-1.62,.69-.61,.08-1.25-.02-1.92-.27-.68-.26-1.22-.62-1.62-1.09-.4-.46-.65-1-.75-1.6s-.02-1.23,.23-1.89c.26-.67,.62-1.19,1.1-1.58,.48-.39,1.02-.62,1.64-.71s1.26,0,1.94,.26Zm-.35,.92c-.44-.17-.87-.22-1.27-.14-.4,.08-.77,.26-1.08,.55-.32,.29-.57,.68-.76,1.17-.18,.48-.25,.92-.2,1.34,.05,.42,.2,.79,.45,1.11,.25,.32,.6,.57,1.05,.74,.43,.17,.85,.21,1.25,.14,.4-.07,.75-.25,1.07-.54,.32-.29,.56-.67,.75-1.14s.25-.93,.21-1.36-.19-.81-.43-1.13c-.25-.33-.59-.57-1.02-.74Z"/><path class="cls-1" d="M104.05,300.6l-.36,.83-1.22-.53-1.95,4.47,1.2,.52-.36,.83-1.2-.52-.57,1.31c-.16,.37-.37,.67-.62,.9s-.55,.35-.89,.38c-.34,.03-.72-.04-1.13-.23-.43-.19-.76-.45-1-.81-.24-.35-.27-.81-.07-1.37l1,.14c-.08,.29-.09,.53-.05,.74,.04,.2,.19,.36,.44,.47,.23,.1,.45,.09,.65-.02s.39-.35,.54-.72l.56-1.29-1.87-.81,.36-.83,1.87,.81,1.95-4.47-1.57-.69,.36-.83,3.94,1.72Z"/><path class="cls-1" d="M92.25,295.02c.56,.29,.92,.66,1.06,1.1,.14,.44,.06,.95-.25,1.55l-1.76,3.38,.98,.51-.42,.8-.98-.51-1.05,2.02-1.34-.14,1.28-2.46-1.57-.81,.42-.8,1.57,.81,1.72-3.32c.19-.37,.27-.67,.23-.88-.04-.21-.21-.4-.5-.55l-.9-.47,.42-.8,1.1,.57Z"/><path class="cls-1" d="M90.63,294.22l-.45,.78-1.07-.62-3.99,6.88,1.06,.61-.44,.76-2.15-1.24,2.03-3.5,.44,.16c-.6,.07-1.17,.08-1.71,.04-.54-.04-1.03-.2-1.48-.46-.53-.31-.89-.73-1.07-1.28-.18-.54-.09-1.13,.27-1.76l1.87-3.22-1.06-.61,.45-.78,3.1,1.8-.45,.78-.96-.55-1.75,3.02c-.23,.4-.32,.77-.26,1.11s.26,.6,.61,.8c.37,.22,.81,.35,1.32,.4,.51,.05,1.01,.04,1.51-.02l-.67,.32,2.25-3.88-.94-.55,.45-.78,3.1,1.8Z"/><path class="cls-1" d="M79.87,287.48c.59,.39,1.04,.86,1.36,1.42,.32,.56,.47,1.15,.46,1.78-.01,.63-.21,1.24-.6,1.83-.4,.61-.87,1.04-1.43,1.31-.55,.27-1.13,.38-1.74,.33s-1.18-.25-1.73-.61c-.57-.37-.98-.81-1.24-1.32-.26-.51-.35-1.05-.28-1.63,.07-.58,.29-1.16,.68-1.75l.18-.27,4.78,3.13-.44,.65-3.73-2.44c-.24,.37-.38,.73-.4,1.09-.02,.36,.05,.69,.21,.99,.17,.31,.42,.57,.75,.78,.35,.23,.72,.35,1.12,.37,.39,.02,.77-.07,1.14-.27,.37-.2,.69-.52,.98-.95,.3-.46,.48-.92,.53-1.37,.05-.45-.02-.87-.21-1.25-.19-.39-.48-.71-.88-.97-.43-.28-.88-.45-1.35-.52-.47-.06-.92-.06-1.36,.03l.05-.88c.45-.13,.94-.16,1.49-.1,.54,.06,1.1,.27,1.66,.64Z"/><path class="cls-1" d="M69.65,280.13c.56,.44,.97,.94,1.21,1.51,.25,.57,.32,1.15,.23,1.76s-.36,1.19-.8,1.75c-.44,.56-.94,.96-1.5,1.19-.56,.23-1.15,.29-1.75,.18s-1.19-.38-1.75-.82c-.57-.45-.98-.95-1.23-1.52-.25-.56-.33-1.15-.25-1.75s.34-1.18,.78-1.73c.44-.56,.95-.96,1.52-1.19,.57-.23,1.16-.3,1.77-.2,.61,.1,1.21,.37,1.78,.82Zm-.61,.78c-.37-.29-.77-.46-1.18-.51s-.81,.02-1.2,.21c-.39,.18-.75,.48-1.07,.89-.31,.4-.51,.81-.59,1.22-.08,.41-.04,.81,.1,1.19,.15,.38,.41,.72,.78,1.01,.37,.29,.75,.45,1.15,.5,.4,.05,.8-.02,1.18-.2,.39-.18,.74-.47,1.05-.87,.31-.4,.52-.81,.6-1.23,.09-.42,.06-.82-.08-1.21s-.39-.72-.76-1Z"/><path class="cls-1" d="M66.09,277.53l-.58,.69-.94-.81-5.16,6.05,.92,.78-.57,.67-1.88-1.6,5.74-6.73-.83-.71,.58-.69,2.73,2.33Z"/><path class="cls-1" d="M60.4,272.28c.45,.42,.77,.9,.96,1.46,.19,.55,.22,1.13,.09,1.74-.13,.61-.45,1.18-.95,1.72-.52,.56-1.06,.92-1.63,1.09-.57,.17-1.13,.19-1.68,.05s-1.04-.41-1.47-.81c-.35-.32-.64-.71-.86-1.16-.22-.45-.36-.91-.41-1.39l.4,.17-2.15,2.32,.87,.81-.6,.65-1.79-1.67,6.02-6.48-.77-.72,.61-.66,1.69,1.57-.6,.65-.24-.32c.46,0,.9,.06,1.32,.22,.42,.15,.82,.41,1.21,.76Zm-.85,.51c-.32-.3-.68-.52-1.08-.65-.39-.13-.8-.21-1.23-.21l.7-.13-3.01,3.24,.11-.74c.05,.46,.18,.91,.38,1.33,.2,.42,.45,.77,.74,1.04,.32,.29,.67,.48,1.05,.56s.78,.04,1.19-.12c.41-.15,.81-.44,1.2-.87,.36-.39,.59-.79,.68-1.21,.09-.42,.07-.82-.06-1.2-.13-.38-.36-.73-.68-1.03Z"/><path class="cls-1" d="M54.08,266.06c.49,.51,.83,1.07,1.01,1.68,.19,.62,.2,1.23,.05,1.84-.15,.61-.48,1.16-.98,1.65-.52,.5-1.08,.82-1.68,.96-.6,.14-1.19,.12-1.77-.07-.58-.18-1.1-.51-1.55-.98-.47-.49-.78-1.01-.92-1.56s-.11-1.1,.08-1.65c.19-.55,.54-1.07,1.05-1.56l.23-.22,3.97,4.11-.57,.53-3.09-3.2c-.32,.31-.53,.63-.63,.98s-.11,.68-.01,1.02c.09,.33,.28,.64,.56,.93,.29,.3,.63,.51,1,.61,.38,.11,.77,.1,1.17,0,.4-.11,.79-.35,1.17-.71,.4-.39,.67-.79,.82-1.22,.15-.43,.17-.85,.08-1.27-.1-.42-.31-.8-.64-1.14-.35-.37-.75-.63-1.2-.8-.45-.17-.89-.26-1.33-.28l.24-.85c.47-.02,.96,.05,1.48,.23,.52,.18,1.01,.51,1.47,.99Z"/><path class="cls-1" d="M48.9,260.45c.23,.26,.42,.55,.56,.85s.24,.6,.27,.88c.04,.28,.02,.54-.06,.78l-.05-.29,.56-.49,.65,.74-1.74,1.52-.58-.67,.76-.8-.44,.71c.23-.37,.29-.79,.18-1.27s-.33-.9-.65-1.25c-.28-.32-.58-.54-.9-.64-.32-.11-.59-.06-.82,.14-.27,.24-.38,.5-.33,.77s.21,.65,.48,1.13l.46,.84c.29,.57,.46,1.08,.49,1.53,.04,.45-.18,.88-.65,1.29-.45,.4-.95,.52-1.51,.38-.55-.14-1.06-.48-1.52-1.01-.18-.2-.34-.44-.48-.72-.14-.27-.24-.55-.29-.84-.05-.28-.03-.54,.06-.75l.1,.25-.58,.5-.66-.75,1.73-1.51,.58,.67-1.07,1.23,.65-.96c-.12,.17-.17,.38-.15,.64s.09,.52,.21,.79c.11,.27,.26,.51,.44,.71,.24,.27,.51,.47,.81,.59,.3,.12,.58,.07,.82-.14,.19-.16,.27-.37,.24-.6s-.15-.57-.36-.98l-.43-.78c-.21-.39-.37-.76-.49-1.12-.12-.35-.15-.69-.08-1.02,.07-.33,.28-.65,.65-.97,.33-.29,.69-.44,1.07-.45s.75,.09,1.11,.3c.36,.2,.68,.47,.97,.79Z"/><path class="cls-1" d="M44.64,255.6c.4,.49,.57,.97,.53,1.43-.04,.46-.33,.9-.85,1.32l-2.97,2.39,.69,.86-.7,.56-.69-.86-1.77,1.43-1.17-.67,2.16-1.74-1.11-1.38,.7-.57,1.11,1.38,2.91-2.35c.33-.26,.51-.5,.56-.71,.05-.21-.03-.45-.24-.7l-.64-.79,.7-.56,.78,.97Z"/><path class="cls-1" d="M32.67,253.19c.14,.2,.2,.43,.17,.67-.03,.24-.15,.44-.35,.58-.2,.14-.42,.19-.66,.13-.24-.05-.43-.18-.57-.39-.15-.21-.21-.44-.17-.68,.03-.24,.15-.43,.36-.57,.2-.14,.42-.19,.66-.14,.24,.05,.43,.18,.58,.39Zm7.67-3.25l-.74,.52-.74-1.06-3.99,2.81,.73,1.04-.74,.52-1.45-2.06,4.73-3.32-.69-.99,.74-.52,2.15,3.06Z"/><path class="cls-1" d="M37.76,246.34l-.76,.49-.7-1.09-4.11,2.63,.7,1.09-.76,.49-1.37-2.13,.77-.5,.3,.37c-.53-.22-1.02-.48-1.46-.76-.44-.29-.79-.64-1.06-1.06-.33-.52-.45-1.05-.36-1.62,.09-.56,.44-1.04,1.05-1.43l3.14-2.01-.67-1.05,.76-.49,1.93,3.02-.76,.49-.6-.93-2.94,1.88c-.39,.25-.64,.54-.73,.87-.1,.33-.04,.66,.17,1,.22,.34,.52,.64,.9,.9s.83,.5,1.35,.73l-.72-.12,3.78-2.42-.65-1.02,.76-.49,2.02,3.15Z"/><path class="cls-1" d="M29.19,231.95c.3,.56,.38,1.06,.25,1.5s-.49,.82-1.08,1.13l-3.36,1.79,.52,.98-.79,.42-.52-.97-2.01,1.07-1.03-.88,2.45-1.3-.83-1.56,.79-.42,.83,1.56,3.3-1.76c.37-.2,.6-.4,.68-.6,.09-.2,.05-.44-.1-.74l-.48-.9,.79-.42,.58,1.09Z"/><path class="cls-1" d="M28.31,230.38l-.81,.39-.53-1.12-7.18,3.42,.53,1.1-.8,.38-1.07-2.24,3.65-1.74,.27,.38c-.54-.28-1.02-.6-1.43-.94-.42-.34-.74-.75-.96-1.22-.26-.55-.32-1.1-.16-1.66,.16-.55,.56-.98,1.22-1.3l3.36-1.6-.53-1.11,.81-.39,1.54,3.24-.81,.39-.47-1-3.15,1.5c-.42,.2-.7,.46-.84,.77s-.13,.65,.04,1c.19,.39,.47,.75,.86,1.08,.39,.33,.81,.61,1.25,.83l-.73-.12,4.05-1.93-.47-.98,.81-.39,1.54,3.24Z"/><path class="cls-1" d="M23.26,218.73c.27,.65,.37,1.3,.32,1.94-.06,.64-.27,1.22-.63,1.73-.37,.51-.87,.9-1.52,1.17-.67,.27-1.31,.37-1.92,.27-.61-.09-1.15-.33-1.62-.72-.47-.38-.83-.88-1.08-1.49-.26-.63-.35-1.23-.27-1.79,.08-.56,.3-1.06,.69-1.5,.38-.44,.9-.79,1.55-1.06l.3-.12,2.17,5.29-.73,.28-1.69-4.12c-.41,.17-.72,.39-.95,.67-.22,.28-.35,.59-.39,.94-.04,.35,.02,.7,.17,1.07,.16,.39,.4,.7,.71,.94s.68,.38,1.09,.42c.42,.04,.87-.03,1.35-.23,.51-.21,.92-.49,1.21-.83,.29-.34,.47-.72,.54-1.15,.06-.42,0-.86-.17-1.3-.19-.47-.47-.87-.82-1.19-.35-.32-.73-.57-1.13-.75l.54-.7c.44,.15,.87,.4,1.29,.76,.42,.36,.75,.84,1,1.46Z"/><path class="cls-1" d="M19.06,207.83l-4.94,3.67,.25,.85-.86,.26-.86-2.9,.86-.26,.26,.88,3.9-2.81-4.8-.22,.27,.91-.86,.26-.93-3.15,.86-.26,.28,.93,3.9-2.88-4.78-.1,.27,.9-.86,.26-.86-2.88,.86-.26,.27,.9,6.11,.28,.35,1.17-4.06,3,5.04,.29,.35,1.17Z"/><path class="cls-1" d="M15.91,195.37c.16,.7,.15,1.34-.02,1.94-.17,.6-.48,1.1-.93,1.51-.45,.41-1.03,.69-1.72,.85-.7,.16-1.33,.15-1.92-.03-.58-.18-1.07-.5-1.47-.97-.4-.47-.68-1.05-.84-1.75-.16-.71-.16-1.36,0-1.95,.16-.59,.47-1.1,.91-1.51,.45-.41,1.01-.7,1.7-.85,.7-.16,1.34-.15,1.93,.04s1.09,.5,1.5,.97,.7,1.05,.86,1.76Zm-.96,.22c-.1-.46-.3-.84-.59-1.14-.29-.29-.64-.49-1.06-.6-.42-.1-.88-.1-1.39,.02-.5,.11-.91,.3-1.23,.57-.32,.27-.55,.6-.67,.99s-.14,.82-.03,1.28c.1,.45,.29,.83,.57,1.12,.28,.29,.63,.49,1.04,.59,.41,.1,.87,.1,1.37-.01,.5-.11,.91-.3,1.25-.58,.33-.27,.57-.6,.7-.99,.13-.38,.15-.8,.05-1.26Z"/><path class="cls-1" d="M14.76,191l-.89,.16-.22-1.27-4.81,.84,.22,1.27-.89,.16-.44-2.49,1.96-.34v.24c-.52-.03-.94-.12-1.27-.27-.32-.14-.57-.33-.75-.56-.17-.23-.28-.48-.33-.75-.04-.22-.05-.45-.03-.68s.06-.47,.13-.71l1.17,.1c-.09,.21-.15,.42-.18,.62-.03,.2-.02,.4,.01,.6,.07,.42,.31,.76,.72,1,.41,.25,.94,.31,1.6,.19l2.65-.45-.21-1.17,.89-.16,.64,3.67Z"/><path class="cls-1" d="M13.7,184.77l-.89,.12-.17-1.23-7.88,1.1,.17,1.2-.88,.12-.34-2.44,8.76-1.22-.15-1.08,.89-.12,.49,3.55Z"/><path class="cls-1" d="M12.94,177.07c.06,.61-.03,1.18-.25,1.72-.23,.54-.59,.99-1.09,1.36-.5,.37-1.12,.58-1.85,.65-.76,.07-1.4-.02-1.95-.27-.54-.25-.97-.61-1.29-1.08-.32-.47-.5-1-.56-1.59-.05-.47,0-.95,.13-1.44,.13-.48,.34-.92,.62-1.31l.19,.39-3.15,.3,.11,1.18-.88,.08-.23-2.44,8.8-.84-.1-1.05,.9-.09,.22,2.3-.88,.08,.03-.4c.35,.3,.63,.64,.84,1.04,.21,.4,.35,.85,.4,1.37Zm-.97-.18c-.04-.44-.17-.84-.37-1.2-.21-.36-.46-.69-.78-.98l.62,.37-4.4,.42,.57-.48c-.27,.38-.47,.79-.6,1.24-.13,.45-.17,.87-.14,1.27,.04,.43,.18,.8,.41,1.11s.56,.55,.96,.7c.41,.15,.9,.2,1.47,.15,.53-.05,.97-.2,1.31-.45,.35-.25,.6-.56,.76-.93,.16-.37,.22-.78,.17-1.22Z"/></svg>