<?xml version="1.0" encoding="UTF-8"?><svg id="svg2211" xmlns="http://www.w3.org/2000/svg" viewBox="0 0 350 280"><defs><style>.cls-1{fill:#fff;}</style></defs><path id="path2223" class="cls-1" d="M240.39,277.59c-.19-1.45-.23-9.04-.11-16.86,.3-18.09,1.74-26.58,12.89-75.87,4.98-22.01,5.48-37.01,1.3-39.23-3.71-1.97-7.56,.52-13.65,8.83-19.24,26.25-49.5,57.66-73.42,76.24-51.14,39.71-105.49,54.05-137.64,36.32C6.06,253.94-5.75,220.65,2.75,190.86c8.1-28.41,39.65-38.95,57.99-19.38,9.13,9.75,6.89,26.97-4.36,33.52-9.1,5.29-20.58-5.56-17.54-16.57,1.07-3.86,.89-3.98-3.35-2.39-24.85,9.33-19.57,51.74,7.87,63.3,31.72,13.36,81.6-5.13,131.5-48.72,19.79-17.29,43.62-46,40.85-49.22-.81-.95-11.98-.7-22.58,.49-31.15,3.5-68.35-3.59-112.08-21.39-5.64-2.3-13.75-5.58-18.01-7.3-9.19-3.71-26.41-8.81-38.28-11.35-4.68-1-9.02-1.95-9.64-2.11l-1.14-.3,.13-12.64,.13-12.64,4.25-1.13c16.76-4.47,44.91-12.71,68.05-19.91,51.7-16.1,57.2-17.7,67.8-19.68,36.3-6.8,56.15-2.55,132,28.23,14.26,5.79,30.09,7.24,43.89,4.02,3.17-.74,6.76-1.26,7.96-1.16l2.19,.19,4.64,11.98c2.55,6.59,4.66,12.13,4.67,12.31,.01,.18-3.07,.79-6.85,1.36-29.2,4.36-45.81,12.23-55.22,26.16-7.02,10.39-8.85,14.99-10.26,25.75-2.17,16.57,1.11,22.49,16.93,30.59,4.06,2.08,4.07,2.14,.76,3.03-12.72,3.44-18.6,11.5-24.89,34.13-10.14,36.48-20.03,57.54-28.11,59.84-1.27,.36-1.36,.25-1.68-2.26Zm-29.15-150.8c25.4-3.08,54.77-14.39,72.11-27.75l1.92-1.48-3.76-2.21c-10.03-5.9-24.39-12.12-43.44-18.83-4.75-1.67-21.43-5.91-30.08-7.64l-1.89-.38,.39,2.51c3.31,21.57-7.8,35.76-27.28,34.82-17.38-.84-27.17-12.97-24.87-30.84,.43-3.31,.68-6.12,.57-6.25-.37-.43-28.83,7.38-47.48,13.02-16.2,4.9-36.47,10.69-49.41,14.11l-4.25,1.12,6.75,2.45c3.72,1.35,15.87,5.98,27.02,10.29,28.97,11.21,45.22,15.47,68,17.85,7.74,.81,47.14,.25,55.7-.79ZM16.67,59.43c.18-6.07,.61-13.14,.95-15.71l.62-4.68,9.01-.02c16.29-.03,24.34-2.44,71.05-21.27C135.77,2.66,173.84-3.29,200.65,1.77c22.86,4.31,48.28,12.03,77.53,23.54,28.71,11.29,44.1,13.11,61.79,7.29,1.57-.52,11.05,18.83,9.94,20.27-.9,1.16-4.51,2.9-9.69,4.65-5.21,1.77-26.71,2.31-33.9,.86-5.41-1.09-26.6-8.13-40.9-13.58-36.99-14.11-81.29-21.14-106.82-16.97-22.71,3.71-31.59,6.27-60.19,17.3-33.62,12.97-63.07,22.19-79.61,24.93l-2.45,.41,.33-11.04Z"/></svg>